<svg xmlns="http://www.w3.org/2000/svg" xmlns:xlink="http://www.w3.org/1999/xlink" version="1.1" x="0px" y="0px" viewBox="0 0 100 100" enable-background="new 0 0 100 100" xml:space="preserve"><g><path d="M18.907,27.199c-4.507-2.252-5.175-9.736-5.175-9.736s6.206-1.658,10.092,1.544c3.891,3.208,4.916,9.709,4.916,9.709   S22.186,28.838,18.907,27.199z"></path><path d="M13.732,46.227c0-8.146,6.604-14.75,14.75-14.75c8.146,0,14.749,6.604,14.749,14.75"></path><path d="M81.351,26.562c1.357,0,2.458-1.102,2.458-2.458c0-1.356-1.101-2.458-2.458-2.458h-9.833c-1.356,0-2.458,1.102-2.458,2.458   c0,1.357,1.102,2.458,2.458,2.458c0,9.833-5.26,6.555-5.26,19.666h10.176h9.834C86.268,33.116,81.351,36.394,81.351,26.562z"></path><path d="M39.954,38.033c-1.64-6.556-3.278-14.75-4.917-19.665c-2.138-6.412,1.639-14.961,9.833-13.112   c6.442,1.457,11.471,9.834,13.177,23.013c0,0-6.074-6.625-8.261-4.985c0,0-1.312,1.252,1.882,3.047   c3.444,1.938,11.365,8.903,10.022,15.984c0,0-4.712-4.428-8.266-5.437c-0.975-0.278-2.391,1.672-0.362,2.794   c1.666,0.921,4.917,3.278,8.195,6.555H43.231"></path><path d="M13.732,48.728L23.571,95h26.646h0.005h26.04l10.005-46.272H13.732z M59.972,68.135c-0.079,1.229-0.375,2.396-0.858,3.465   c-2.45,6.798-9.114,15.896-9.114,15.896s-6.807-9.179-9.188-16.054c-0.438-1.018-0.704-2.123-0.782-3.281   c-0.021-0.23-0.034-0.457-0.034-0.674c0-5.528,4.479-10.006,10.004-10.006c5.527,0,10.006,4.478,10.006,10.006   C60.005,67.696,59.992,67.913,59.972,68.135z"></path><circle cx="49.999" cy="67.488" r="6.254"></circle></g></svg>